<mxfile host="app.diagrams.net" modified="2022-05-01T14:22:59.097Z" agent="5.0 (Windows NT 10.0; Win64; x64) AppleWebKit/537.36 (KHTML, like Gecko) Chrome/101.0.4951.41 Safari/537.36 Edg/101.0.1210.32" etag="sQu0ai1YaN43WeXvqBkJ" version="17.5.0" type="github">
  <diagram name="Page-1" id="13e1069c-82ec-6db2-03f1-153e76fe0fe0">
    <mxGraphModel dx="1146" dy="626" grid="1" gridSize="10" guides="1" tooltips="1" connect="1" arrows="1" fold="1" page="1" pageScale="1" pageWidth="1100" pageHeight="850" background="none" math="0" shadow="0">
      <root>
        <mxCell id="0" />
        <mxCell id="1" style="" parent="0" />
        <mxCell id="JttuDwRoJ1vtQlbPvAH2-2" value="" style="shape=umlLifeline;participant=umlActor;perimeter=lifelinePerimeter;whiteSpace=wrap;html=1;container=1;collapsible=0;recursiveResize=0;verticalAlign=top;spacingTop=36;outlineConnect=0;size=70;" vertex="1" parent="1">
          <mxGeometry x="230" y="140" width="50" height="550" as="geometry" />
        </mxCell>
        <mxCell id="JttuDwRoJ1vtQlbPvAH2-6" value="" style="html=1;points=[];perimeter=orthogonalPerimeter;fontSize=16;" vertex="1" parent="JttuDwRoJ1vtQlbPvAH2-2">
          <mxGeometry x="24" y="120" width="10" height="400" as="geometry" />
        </mxCell>
        <mxCell id="JttuDwRoJ1vtQlbPvAH2-3" value="学生" style="text;html=1;align=center;verticalAlign=middle;resizable=0;points=[];autosize=1;strokeColor=none;fillColor=none;fontSize=16;" vertex="1" parent="1">
          <mxGeometry x="230" y="217" width="50" height="20" as="geometry" />
        </mxCell>
        <mxCell id="JttuDwRoJ1vtQlbPvAH2-5" value=":活动" style="shape=umlLifeline;perimeter=lifelinePerimeter;whiteSpace=wrap;html=1;container=1;collapsible=0;recursiveResize=0;outlineConnect=0;fontSize=16;" vertex="1" parent="1">
          <mxGeometry x="360" y="210" width="102.33" height="480" as="geometry" />
        </mxCell>
        <mxCell id="JttuDwRoJ1vtQlbPvAH2-9" value="" style="html=1;points=[];perimeter=orthogonalPerimeter;fontSize=16;" vertex="1" parent="JttuDwRoJ1vtQlbPvAH2-5">
          <mxGeometry x="46.17" y="80.5" width="10" height="359.5" as="geometry" />
        </mxCell>
        <mxCell id="JttuDwRoJ1vtQlbPvAH2-33" value="4.检查学生资格" style="html=1;verticalAlign=bottom;endArrow=block;rounded=0;fontSize=16;exitX=1;exitY=0.108;exitDx=0;exitDy=0;exitPerimeter=0;edgeStyle=orthogonalEdgeStyle;entryX=1;entryY=0.456;entryDx=0;entryDy=0;entryPerimeter=0;" edge="1" parent="JttuDwRoJ1vtQlbPvAH2-5">
          <mxGeometry x="0.0963" width="80" relative="1" as="geometry">
            <mxPoint x="56.170000000000016" y="190.0200000000001" as="sourcePoint" />
            <mxPoint x="56.170000000000016" y="223.65999999999985" as="targetPoint" />
            <Array as="points">
              <mxPoint x="116.17000000000002" y="190" />
              <mxPoint x="116.17000000000002" y="224" />
              <mxPoint x="58.170000000000016" y="224" />
            </Array>
            <mxPoint as="offset" />
          </mxGeometry>
        </mxCell>
        <mxCell id="JttuDwRoJ1vtQlbPvAH2-40" value="6.提交成功" style="html=1;verticalAlign=bottom;endArrow=open;dashed=1;endSize=8;rounded=0;fontSize=15;exitX=0.011;exitY=0.828;exitDx=0;exitDy=0;exitPerimeter=0;entryX=1.005;entryY=0.95;entryDx=0;entryDy=0;entryPerimeter=0;" edge="1" parent="JttuDwRoJ1vtQlbPvAH2-5">
          <mxGeometry relative="1" as="geometry">
            <mxPoint x="43.88999999999987" y="309.67999999999984" as="sourcePoint" />
            <mxPoint x="-89.99999999999977" y="308.52499999999986" as="targetPoint" />
          </mxGeometry>
        </mxCell>
        <mxCell id="JttuDwRoJ1vtQlbPvAH2-7" value="1.查看活动" style="html=1;verticalAlign=bottom;endArrow=block;rounded=0;fontSize=16;exitX=0.993;exitY=0.083;exitDx=0;exitDy=0;exitPerimeter=0;entryX=0.005;entryY=0.127;entryDx=0;entryDy=0;entryPerimeter=0;" edge="1" parent="1">
          <mxGeometry x="0.0572" width="80" relative="1" as="geometry">
            <mxPoint x="263.92999999999984" y="301.91999999999996" as="sourcePoint" />
            <mxPoint x="406.22000000000025" y="303.34299999999996" as="targetPoint" />
            <mxPoint as="offset" />
          </mxGeometry>
        </mxCell>
        <mxCell id="JttuDwRoJ1vtQlbPvAH2-11" value=":数据库服务" style="shape=umlLifeline;perimeter=lifelinePerimeter;whiteSpace=wrap;html=1;container=1;collapsible=0;recursiveResize=0;outlineConnect=0;fontSize=16;" vertex="1" parent="1">
          <mxGeometry x="500" y="210" width="110" height="480" as="geometry" />
        </mxCell>
        <mxCell id="JttuDwRoJ1vtQlbPvAH2-38" value="" style="html=1;points=[];perimeter=orthogonalPerimeter;fontSize=15;" vertex="1" parent="JttuDwRoJ1vtQlbPvAH2-11">
          <mxGeometry x="50" y="252" width="10" height="60" as="geometry" />
        </mxCell>
        <mxCell id="JttuDwRoJ1vtQlbPvAH2-29" value="2.活动信息" style="html=1;verticalAlign=bottom;endArrow=open;dashed=1;endSize=8;rounded=0;fontSize=15;entryX=1.056;entryY=0.227;entryDx=0;entryDy=0;entryPerimeter=0;exitX=0.005;exitY=0.169;exitDx=0;exitDy=0;exitPerimeter=0;" edge="1" parent="1" source="JttuDwRoJ1vtQlbPvAH2-9" target="JttuDwRoJ1vtQlbPvAH2-6">
          <mxGeometry relative="1" as="geometry">
            <mxPoint x="380" y="351" as="sourcePoint" />
            <mxPoint x="290" y="350" as="targetPoint" />
          </mxGeometry>
        </mxCell>
        <mxCell id="JttuDwRoJ1vtQlbPvAH2-31" value="3.报名活动" style="html=1;verticalAlign=bottom;endArrow=block;rounded=0;fontSize=16;exitX=1;exitY=0.319;exitDx=0;exitDy=0;exitPerimeter=0;entryX=0.005;entryY=0.273;entryDx=0;entryDy=0;entryPerimeter=0;" edge="1" parent="1" source="JttuDwRoJ1vtQlbPvAH2-6" target="JttuDwRoJ1vtQlbPvAH2-9">
          <mxGeometry x="0.0572" width="80" relative="1" as="geometry">
            <mxPoint x="279.9999999999998" y="389.7199999999998" as="sourcePoint" />
            <mxPoint x="400" y="388" as="targetPoint" />
            <mxPoint as="offset" />
          </mxGeometry>
        </mxCell>
        <mxCell id="JttuDwRoJ1vtQlbPvAH2-37" value="5.提交报名" style="html=1;verticalAlign=bottom;endArrow=block;rounded=0;fontSize=16;exitX=1.005;exitY=0.735;exitDx=0;exitDy=0;exitPerimeter=0;entryX=0.011;entryY=-0.011;entryDx=0;entryDy=0;entryPerimeter=0;" edge="1" parent="1">
          <mxGeometry x="0.0572" width="80" relative="1" as="geometry">
            <mxPoint x="416.22000000000025" y="465.1825000000001" as="sourcePoint" />
            <mxPoint x="550.1099999999999" y="465.3399999999999" as="targetPoint" />
            <mxPoint as="offset" />
          </mxGeometry>
        </mxCell>
        <mxCell id="JttuDwRoJ1vtQlbPvAH2-39" value="6.提交结果" style="html=1;verticalAlign=bottom;endArrow=open;dashed=1;endSize=8;rounded=0;fontSize=15;exitX=0.011;exitY=0.828;exitDx=0;exitDy=0;exitPerimeter=0;entryX=1.005;entryY=0.95;entryDx=0;entryDy=0;entryPerimeter=0;" edge="1" parent="1">
          <mxGeometry relative="1" as="geometry">
            <mxPoint x="550.1099999999999" y="515.6799999999998" as="sourcePoint" />
            <mxPoint x="416.22000000000025" y="514.5249999999999" as="targetPoint" />
          </mxGeometry>
        </mxCell>
        <mxCell id="JttuDwRoJ1vtQlbPvAH2-42" value="[参与资格==True]" style="text;html=1;align=center;verticalAlign=middle;resizable=0;points=[];autosize=1;strokeColor=none;fillColor=none;fontSize=15;" vertex="1" parent="1">
          <mxGeometry x="270" y="450" width="130" height="20" as="geometry" />
        </mxCell>
        <mxCell id="JttuDwRoJ1vtQlbPvAH2-45" value="" style="endArrow=none;html=1;rounded=0;fontSize=15;exitX=0;exitY=0.455;exitDx=0;exitDy=0;exitPerimeter=0;entryX=1.001;entryY=0.45;entryDx=0;entryDy=0;entryPerimeter=0;" edge="1" parent="1" source="JttuDwRoJ1vtQlbPvAH2-41" target="JttuDwRoJ1vtQlbPvAH2-41">
          <mxGeometry width="50" height="50" relative="1" as="geometry">
            <mxPoint x="790" y="560" as="sourcePoint" />
            <mxPoint x="840" y="510" as="targetPoint" />
          </mxGeometry>
        </mxCell>
        <mxCell id="JttuDwRoJ1vtQlbPvAH2-46" value="[参与资格==False]" style="text;html=1;align=center;verticalAlign=middle;resizable=0;points=[];autosize=1;strokeColor=none;fillColor=none;fontSize=15;" vertex="1" parent="1">
          <mxGeometry x="265" y="550" width="140" height="20" as="geometry" />
        </mxCell>
        <mxCell id="JttuDwRoJ1vtQlbPvAH2-41" value="alt" style="shape=umlFrame;whiteSpace=wrap;html=1;fontSize=15;" vertex="1" parent="1">
          <mxGeometry x="194.25" y="440" width="433.83" height="230" as="geometry" />
        </mxCell>
        <mxCell id="JttuDwRoJ1vtQlbPvAH2-47" value="Untitled Layer" parent="0" />
        <mxCell id="JttuDwRoJ1vtQlbPvAH2-36" value="7.活动信息" style="html=1;verticalAlign=bottom;endArrow=open;dashed=1;endSize=8;rounded=0;fontSize=15;entryX=1;entryY=0.876;entryDx=0;entryDy=0;entryPerimeter=0;exitX=-0.217;exitY=0.891;exitDx=0;exitDy=0;exitPerimeter=0;" edge="1" parent="JttuDwRoJ1vtQlbPvAH2-47" source="JttuDwRoJ1vtQlbPvAH2-9" target="JttuDwRoJ1vtQlbPvAH2-6">
          <mxGeometry x="-0.0345" relative="1" as="geometry">
            <mxPoint x="890" y="340" as="sourcePoint" />
            <mxPoint x="780" y="340.44000000000005" as="targetPoint" />
            <mxPoint as="offset" />
          </mxGeometry>
        </mxCell>
      </root>
    </mxGraphModel>
  </diagram>
</mxfile>
